<svg id="Layer_1" xmlns="http://www.w3.org/2000/svg" viewBox="0 0 1850 600">
  <style>
    .grad{fill: url(#MyGradient)}
  </style>
  <defs>
        <linearGradient id="MyGradient">
          <stop offset="5%" stop-color="aqua" />
          <stop offset="95%" stop-color="magenta" />
        </linearGradient>
      </defs>
  
<g class="grad" transform="matrix(1.333333, 0, 0, -1.333333, -2624.655801, 1550.816307)" id="g10">
  <g transform="scale(0.1)" id="g12">
    <g transform="scale(2.06028)" id="g62">
      <path id="path64" style=";fill-opacity:1;fill-rule:nonzero;stroke:none" d="m 16249.1,5440.42 c -85.3,-5.58 -170.6,-12.33 -256.1,-16.07 -24.2,-1.06 -49.5,4.18 -73,10.88 -103.8,29.41 -206.7,62.08 -310.8,90.32 -127.1,34.61 -254.5,29.56 -380.8,-7.23 -59.9,-17.52 -118.9,-41.98 -180.1,-51.16 -45.5,-6.79 -94.4,2.82 -140.9,10.63 -135.2,22.87 -269.3,52.91 -405,71.84 -123.9,17.28 -240.9,-20.1 -349.2,-76.98 -172.3,-90.57 -347.6,-106.83 -533.1,-46.4 -137.1,44.65 -275.1,95.57 -421.8,90.47 -127.9,-4.37 -255.1,-26.55 -383,-33.2 -148.9,-7.76 -298.3,-12.57 -447.2,-8.4 -102.5,2.82 -204.4,29.76 -306.9,33.35 -89.9,3.11 -181.7,-4.17 -270.3,-19.76 -158.3,-27.76 -316.4,-45.81 -477.2,-46.79 -203.6,-1.16 -399.6,46.41 -597.9,80.82 -155.8,27.03 -311,39.07 -469.3,6.84 -156.7,-31.84 -315.97,-51.88 -474.73,-72.8 -57.18,-7.58 -117.02,-9.76 -171.05,20.77 -11.16,6.31 -23.83,11.89 -31.98,21.11 -7.48,8.45 -16.7,26.6 -13.11,31.36 7.53,9.9 24.76,21.4 34.85,19.03 172.79,-40.68 335.98,19.12 502.12,45.91 150.1,24.17 300.7,52.76 453,34.37 127.5,-15.44 252.8,-48.1 380.1,-64.51 133.3,-17.18 267.7,-29.46 401.8,-34.07 180.6,-6.21 356.5,33.73 533.6,64.02 79.3,13.54 163.1,5.39 244.5,0.68 144.1,-8.3 288.1,-31.7 432,-29.71 161,2.28 321.8,26.16 482.8,39.85 180,15.29 353.1,-8.2 524.7,-70.38 159.4,-57.81 323.6,-79.31 488.6,0.15 89.9,43.39 185.8,80.23 283.1,101 110.1,23.54 223.5,8.45 334.9,-13.49 139.2,-27.52 275.7,-85.43 422.4,-44.6 36.2,10.09 72.7,19.56 108.3,31.59 157.6,53.35 310.9,36.16 466,-16.4 128.1,-43.4 257.1,-84.07 398.1,-68.54 64.8,7.09 132.4,-12.47 198.7,-20.33 7,-0.88 16.5,-2.19 20.3,-6.95 12.6,-16.01 23.1,-33.73 34.5,-50.76 -15.8,-7.04 -31.5,-14.03 -47.4,-21.07 -1.1,4.81 -2.3,9.71 -3.5,14.56 v 0.05"></path>
    </g>
  </g>
</g>
</svg>