<svg id="visual" viewBox="0 0 900 600" width="900" height="600" xmlns="http://www.w3.org/2000/svg" xmlns:xlink="http://www.w3.org/1999/xlink" version="1.1"><rect x="0" y="0" width="900" height="600" fill="#001220"></rect><path d="M0 386L21.5 392.8C43 399.7 86 413.3 128.8 410.7C171.7 408 214.3 389 257.2 386.8C300 384.7 343 399.3 385.8 404.3C428.7 409.3 471.3 404.7 514.2 393.8C557 383 600 366 642.8 367.5C685.7 369 728.3 389 771.2 393.3C814 397.7 857 386.3 878.5 380.7L900 375L900 601L878.5 601C857 601 814 601 771.2 601C728.3 601 685.7 601 642.8 601C600 601 557 601 514.2 601C471.3 601 428.7 601 385.8 601C343 601 300 601 257.2 601C214.3 601 171.7 601 128.8 601C86 601 43 601 21.5 601L0 601Z" fill="#fa7268"></path><path d="M0 470L21.5 464.3C43 458.7 86 447.3 128.8 443C171.7 438.7 214.3 441.3 257.2 448C300 454.7 343 465.3 385.8 466C428.7 466.7 471.3 457.3 514.2 444.5C557 431.7 600 415.3 642.8 412.8C685.7 410.3 728.3 421.7 771.2 423C814 424.3 857 415.7 878.5 411.3L900 407L900 601L878.5 601C857 601 814 601 771.2 601C728.3 601 685.7 601 642.8 601C600 601 557 601 514.2 601C471.3 601 428.7 601 385.8 601C343 601 300 601 257.2 601C214.3 601 171.7 601 128.8 601C86 601 43 601 21.5 601L0 601Z" fill="#ef5f67"></path><path d="M0 491L21.5 486C43 481 86 471 128.8 465.8C171.7 460.7 214.3 460.3 257.2 464C300 467.7 343 475.3 385.8 472.5C428.7 469.7 471.3 456.3 514.2 460.5C557 464.7 600 486.3 642.8 486.5C685.7 486.7 728.3 465.3 771.2 461.3C814 457.3 857 470.7 878.5 477.3L900 484L900 601L878.5 601C857 601 814 601 771.2 601C728.3 601 685.7 601 642.8 601C600 601 557 601 514.2 601C471.3 601 428.7 601 385.8 601C343 601 300 601 257.2 601C214.3 601 171.7 601 128.8 601C86 601 43 601 21.5 601L0 601Z" fill="#e34c67"></path><path d="M0 536L21.5 534.3C43 532.7 86 529.3 128.8 521.7C171.7 514 214.3 502 257.2 502.5C300 503 343 516 385.8 516.3C428.7 516.7 471.3 504.3 514.2 497.7C557 491 600 490 642.8 491.8C685.7 493.7 728.3 498.3 771.2 497.3C814 496.3 857 489.7 878.5 486.3L900 483L900 601L878.5 601C857 601 814 601 771.2 601C728.3 601 685.7 601 642.8 601C600 601 557 601 514.2 601C471.3 601 428.7 601 385.8 601C343 601 300 601 257.2 601C214.3 601 171.7 601 128.8 601C86 601 43 601 21.5 601L0 601Z" fill="#d53867"></path><path d="M0 561L21.5 561C43 561 86 561 128.8 561.3C171.7 561.7 214.3 562.3 257.2 559C300 555.7 343 548.3 385.8 550.2C428.7 552 471.3 563 514.2 566.2C557 569.3 600 564.7 642.8 563.8C685.7 563 728.3 566 771.2 563C814 560 857 551 878.5 546.5L900 542L900 601L878.5 601C857 601 814 601 771.2 601C728.3 601 685.7 601 642.8 601C600 601 557 601 514.2 601C471.3 601 428.7 601 385.8 601C343 601 300 601 257.2 601C214.3 601 171.7 601 128.8 601C86 601 43 601 21.5 601L0 601Z" fill="#c62368"></path></svg>